<svg width="50" height="50" viewBox="0 0 50 50" fill="none" xmlns="http://www.w3.org/2000/svg">
<circle cx="25" cy="25" r="25" fill="white"/>
<path d="M16.4284 25.9284H24.0716V33.5716C24.0716 34.3484 24.7106 35 25.5 35C26.2894 35 26.9284 34.3484 26.9284 33.5716V25.9284H34.5716C35.3484 25.9284 36 25.2894 36 24.5C36 23.7106 35.3484 23.0716 34.5716 23.0716H26.9284V15.4284C26.9284 14.6516 26.2894 14 25.5 14C24.7106 14 24.0716 14.6516 24.0716 15.4284V23.0716H16.4284C15.6516 23.0716 15 23.7106 15 24.5C15 25.2894 15.6516 25.9284 16.4284 25.9284Z" fill="#2E82DB"/>
</svg>
